<svg version="1.1" id="Layer_1" xmlns="http://www.w3.org/2000/svg" x="0" y="0" viewBox="0 0 143.058 150" xml:space="preserve"><style>.st4{fill:#eceded}.st18{fill:#58595b}</style><path d="M15 125h2v15h-2zm0-112h2v10h-2zm0-13h2v11h-2zm20 6h2v18h-2zm0 119h2v6.434h-2zm0 8h2v7h-2zm-10 1v16h2v-25h-2zm0-121v10h2V8h-2z" fill="#49ca8f"/><path class="st4" d="M142 29.87V41H1V29.87C1 26.08 4.08 23 7.87 23h127.26c3.79 0 6.87 3.08 6.87 6.87zM29 32c0-1.1-.9-2-2-2s-2 .9-2 2 .9 2 2 2 2-.9 2-2zm-8 0c0-1.1-.9-2-2-2s-2 .9-2 2 .9 2 2 2 2-.9 2-2zm-8 0c0-1.1-.9-2-2-2s-2 .9-2 2 .9 2 2 2 2-.9 2-2zm44 28v47L33.5 83.5zm0 0L33.5 83.5 10 60z"/><path class="st4" d="M57 107H10l23.5-23.5z"/><path class="st4" d="M33.5 83.5L10 107V60z"/><circle class="st18" cx="27" cy="32" r="2"/><path d="M2 41h140v84H1V41h1zm55 66V60H10v47h47z" fill="#fff"/><circle class="st18" cx="19" cy="32" r="2"/><circle class="st18" cx="11" cy="32" r="2"/><path class="st18" d="M135.13 22H7.87C3.53 22 0 25.531 0 29.87V126h143V29.87c0-4.339-3.53-7.87-7.87-7.87zM2 124v-1.49h139V124H2zm139-3.49H2V46h139v74.51zM2 40V29.87A5.877 5.877 0 017.87 24h127.26a5.877 5.877 0 015.87 5.87V40H2z"/><path class="st18" d="M58 108V59H9v49h49zM34.914 83.5L56 62.414v42.172L34.914 83.5zM54.586 106H12.414L33.5 84.914 54.586 106zM33.5 82.086L12.414 61h42.172L33.5 82.086zM32.086 83.5L11 104.586V62.414L32.086 83.5zM73 59h62v2H73zm0 10h62v2H73zm0 10h62v2H73zm0 10h62v2H73zm0 10h38v2H73zm60.153-69h-9.489c-1.379 0-2.5 1.122-2.5 2.5s1.121 2.5 2.5 2.5h9.489c1.379 0 2.5-1.122 2.5-2.5s-1.121-2.5-2.5-2.5zm0 3h-9.489a.5.5 0 010-1h9.489a.5.5 0 010 1z"/></svg>